<?xml version="1.0" encoding="iso-8859-1"?>
<!-- Generator: Adobe Illustrator 19.0.0, SVG Export Plug-In . SVG Version: 6.00 Build 0)  -->
<svg version="1.1" id="Capa_1" xmlns="http://www.w3.org/2000/svg" xmlns:xlink="http://www.w3.org/1999/xlink" x="0px" y="0px"
	 viewBox="0 0 512.001 512.001" style="enable-background:new 0 0 512.001 512.001;" xml:space="preserve">
<g>
	<g>
		<path d="M430.258,258.604l-4.055-0.279c0.246-1.265,0.486-2.542,0.72-3.83c2.391-13.146-0.481-26.437-8.087-37.423
			c-7.606-10.986-19.035-18.353-32.182-20.744c-27.146-4.935-53.232,13.131-58.167,40.27c-2.649,14.568-6.15,25.828-10.406,33.465
			c-2.016,3.618-0.717,8.186,2.901,10.202c3.616,2.016,8.187,0.716,10.202-2.901c5.059-9.078,9.116-21.891,12.061-38.083
			c3.455-19.001,21.724-31.649,40.726-28.195c9.205,1.674,17.207,6.832,22.532,14.524s7.336,16.997,5.662,26.202
			c-0.337,1.854-0.69,3.674-1.052,5.474l-7.198-0.496c-4.133-0.285-7.713,2.835-7.998,6.967c-0.285,4.132,2.834,7.713,6.967,7.998
			l4.823,0.332c-1.924,7.328-4.103,14.163-6.555,20.548l-5.852-1.422c-4.026-0.978-8.081,1.492-9.059,5.517
			c-0.978,4.025,1.492,8.081,5.517,9.059l3.242,0.788c-3.036,6.019-6.388,11.579-10.083,16.717l-3.321-2.355
			c-3.379-2.396-8.06-1.599-10.456,1.78c-2.396,3.379-1.6,8.06,1.78,10.456l2.422,1.717c-0.05,0.052-0.098,0.106-0.147,0.159
			c-17.147,18.057-36.732,26.042-52.5,32.472c-3.471,1.416-12.142,5.241-13.203,5.877V191.392h5.702c4.143,0,7.5-3.358,7.5-7.5
			c0-4.142-3.357-7.5-7.5-7.5h-5.702v-18.981h5.702c4.143,0,7.5-3.358,7.5-7.5c0-4.142-3.357-7.5-7.5-7.5h-5.702V123.43h5.702
			c4.143,0,7.5-3.358,7.5-7.5c0-4.142-3.357-7.5-7.5-7.5h-5.702V89.45h5.702c4.143,0,7.5-3.358,7.5-7.5c0-4.142-3.357-7.5-7.5-7.5
			h-5.702V50.025c0-27.061-22.005-49.498-49.052-50.016c-13.299-0.257-25.943,4.825-35.604,14.303
			c-9.567,9.385-15.129,22.333-15.372,35.647h-5.726c-4.143,0-7.5,3.358-7.5,7.5c0,4.142,3.357,7.5,7.5,7.5h5.702V83.94h-5.702
			c-4.143,0-7.5,3.358-7.5,7.5c0,4.142,3.357,7.5,7.5,7.5h5.702v18.981h-5.702c-4.143,0-7.5,3.358-7.5,7.5
			c0,4.142,3.357,7.5,7.5,7.5h5.702v18.981h-5.702c-4.143,0-7.5,3.358-7.5,7.5c0,4.142,3.357,7.5,7.5,7.5h5.702v45.338
			c-13.961-22.038-21.5-57.593-21.5-102.847c0-27.584-22.441-50.025-50.025-50.025c-1.791,0-3.598,0.096-5.371,0.286
			c-4.119,0.44-7.101,4.136-6.66,8.255s4.14,7.101,8.255,6.66c1.245-0.133,2.516-0.201,3.776-0.201
			c19.313,0,35.025,15.712,35.025,35.025c0,60.364,12.607,103.978,36.5,126.468v21.587c0,4.142,3.358,7.5,7.5,7.5
			c4.142,0,7.5-3.358,7.5-7.5v-90.547h5.702c4.143,0,7.5-3.358,7.5-7.5c0-4.142-3.357-7.5-7.5-7.5h-5.702V132.92h5.702
			c4.143,0,7.5-3.358,7.5-7.5c0-4.142-3.357-7.5-7.5-7.5h-5.702V98.94h5.702c4.143,0,7.5-3.358,7.5-7.5c0-4.142-3.357-7.5-7.5-7.5
			h-5.702V64.959h5.702c4.143,0,7.5-3.358,7.5-7.5c0-4.142-3.357-7.5-7.5-7.5h-5.679c0.241-9.313,4.167-18.358,10.876-24.94
			c6.762-6.634,15.558-10.167,24.813-10.013c18.935,0.363,34.339,16.072,34.339,35.019V74.45h-5.703c-4.143,0-7.5,3.358-7.5,7.5
			c0,4.142,3.357,7.5,7.5,7.5h5.703v18.981h-5.703c-4.143,0-7.5,3.358-7.5,7.5c0,4.142,3.357,7.5,7.5,7.5h5.703v18.981h-5.703
			c-4.143,0-7.5,3.358-7.5,7.5c0,4.142,3.357,7.5,7.5,7.5h5.703v18.981h-5.703c-4.143,0-7.5,3.358-7.5,7.5
			c0,4.142,3.357,7.5,7.5,7.5h5.703v291.272c0,7.905-6.432,14.336-14.337,14.336h-41.378c-7.905,0-14.336-6.431-14.336-14.336
			V290.562c0-4.142-3.358-7.5-7.5-7.5c-4.142,0-7.5,3.358-7.5,7.5v27.991c-3.22-2.775-6.878-5.117-10.904-6.904
			c-27.756-12.323-50.862-34.342-66.82-63.676c-2.734-5.026-5.269-10.294-7.617-15.785l5.715-2.359
			c3.829-1.58,5.652-5.965,4.072-9.794c-1.58-3.829-5.965-5.652-9.794-4.072l-5.39,2.224c-2.238-6.47-4.24-13.216-6.005-20.234
			l6.649-1.879c3.986-1.127,6.304-5.271,5.177-9.257s-5.271-6.304-9.257-5.177l-5.838,1.65c-1.242-6.356-2.309-12.91-3.197-19.66
			l6.889-1.303c4.07-0.77,6.745-4.694,5.975-8.764c-0.77-4.07-4.693-6.745-8.764-5.975l-5.748,1.088
			c-0.544-6.043-0.961-12.223-1.243-18.55l5.972-0.637c4.119-0.439,7.102-4.134,6.662-8.253c-0.439-4.119-4.134-7.102-8.253-6.662
			l-4.798,0.512c-0.022-1.886-0.035-3.782-0.035-5.692c0-8.548,3.113-16.78,8.766-23.178c2.743-3.104,2.449-7.844-0.655-10.586
			c-3.105-2.743-7.844-2.45-10.586,0.655c-8.077,9.142-12.524,20.9-12.524,33.109c0,2.449,0.024,4.875,0.059,7.289l-6.482,0.691
			c-4.119,0.439-7.102,4.134-6.662,8.253c0.439,4.119,4.134,7.102,8.253,6.662l5.344-0.57c0.314,6.734,0.773,13.322,1.377,19.758
			l-5.391,1.02c-4.07,0.77-6.745,4.694-5.975,8.764s4.693,6.745,8.764,5.975l4.3-0.814c0.965,7.193,2.129,14.178,3.482,20.958
			l-5.1,1.442c-3.986,1.127-6.304,5.271-5.177,9.257c1.127,3.986,5.271,6.304,9.257,5.177l4.329-1.224
			c1.92,7.586,4.103,14.884,6.552,21.885l-5.134,2.119c-3.829,1.58-5.652,5.965-4.072,9.794c1.58,3.829,5.965,5.652,9.794,4.072
			l4.827-1.992c2.554,5.99,5.318,11.74,8.306,17.231c17.551,32.261,43.108,56.542,73.911,70.218
			c10.321,4.582,16.99,14.623,16.99,25.581c0,0.003,0,0.006,0,0.01v131.715c0,16.176,13.16,29.336,29.336,29.336h41.378
			c16.177,0,29.337-13.16,29.337-29.336v-82.47c0.01-6.486,3.685-12.298,9.366-14.809c2.95-1.303,6.132-2.6,9.532-3.986
			c17.068-6.96,44.593-21.849,59.294-37.756l6.775,4.804c3.379,2.396,8.06,1.599,10.456-1.78c2.396-3.379,1.6-8.06-1.78-10.456
			l-5.979-4.24c4.772-6.638,9.022-13.865,12.785-21.766l7.475,1.816c4.026,0.978,8.081-1.492,9.059-5.517
			c0.978-4.025-1.492-8.081-5.517-9.059l-5.115-1.243c2.67-7.182,5.024-14.855,7.08-23.069l6.302,0.434
			c4.133,0.285,7.713-2.835,7.998-6.967S434.391,258.889,430.258,258.604z"/>
	</g>
</g>
<g>
</g>
<g>
</g>
<g>
</g>
<g>
</g>
<g>
</g>
<g>
</g>
<g>
</g>
<g>
</g>
<g>
</g>
<g>
</g>
<g>
</g>
<g>
</g>
<g>
</g>
<g>
</g>
<g>
</g>
</svg>
