<?xml version="1.0" encoding="iso-8859-1"?>
<!-- Generator: Adobe Illustrator 18.0.0, SVG Export Plug-In . SVG Version: 6.00 Build 0)  -->
<!DOCTYPE svg PUBLIC "-//W3C//DTD SVG 1.1//EN" "http://www.w3.org/Graphics/SVG/1.1/DTD/svg11.dtd">
<svg version="1.1" id="Capa_1" xmlns="http://www.w3.org/2000/svg" xmlns:xlink="http://www.w3.org/1999/xlink" x="0px" y="0px"
	 viewBox="0 0 480.066 480.066" style="enable-background:new 0 0 480.066 480.066;" xml:space="preserve">
<g>
	<path d="M477.27,180.601L243.238,32.764c-1.958-1.236-4.451-1.236-6.409,0L2.796,180.601c-2.801,1.77-3.638,5.476-1.868,8.277
		l12.497,19.784c0.85,1.345,2.199,2.298,3.751,2.648c1.552,0.351,3.181,0.069,4.526-0.78l17.435-11.014
		c-0.066,0.729-0.105,1.467-0.105,2.213c0,7.381,3.285,14.005,8.465,18.5c-5.18,4.495-8.465,11.119-8.465,18.5
		s3.285,14.005,8.465,18.5c-5.18,4.495-8.465,11.119-8.465,18.5s3.285,14.005,8.465,18.5c-5.18,4.495-8.465,11.119-8.465,18.5
		s3.285,14.005,8.465,18.5c-5.18,4.495-8.465,11.119-8.465,18.5s3.285,14.005,8.465,18.5c-5.18,4.495-8.465,11.119-8.465,18.5
		s3.285,14.005,8.465,18.5c-5.18,4.495-8.465,11.119-8.465,18.5c0,13.509,10.991,24.5,24.5,24.5h353c13.509,0,24.5-10.991,24.5-24.5
		c0-7.381-3.285-14.005-8.465-18.5c5.18-4.495,8.465-11.119,8.465-18.5s-3.285-14.005-8.465-18.5
		c5.18-4.495,8.465-11.119,8.465-18.5s-3.285-14.005-8.465-18.5c5.18-4.495,8.465-11.119,8.465-18.5s-3.285-14.005-8.465-18.5
		c5.18-4.495,8.465-11.119,8.465-18.5s-3.285-14.005-8.465-18.5c5.18-4.495,8.465-11.119,8.465-18.5s-3.285-14.005-8.465-18.5
		c5.18-4.495,8.465-11.119,8.465-18.5c0-0.746-0.039-1.484-0.105-2.213l17.436,11.014c0.967,0.61,2.079,0.927,3.205,0.927
		c0.441,0,0.884-0.049,1.321-0.147c1.552-0.35,2.901-1.303,3.751-2.648l12.497-19.784
		C480.908,186.076,480.072,182.371,477.27,180.601z M240.033,74.689c6.893,0,12.5,5.607,12.5,12.5s-5.607,12.5-12.5,12.5
		s-12.5-5.607-12.5-12.5S233.14,74.689,240.033,74.689z M264.51,88.074l25.935,16.383h-33.052
		C261.609,100.22,264.282,94.454,264.51,88.074z M215.555,88.075c0.228,6.379,2.902,12.146,7.116,16.383h-33.051L215.555,88.075z
		 M170.624,116.457h138.818l37.993,24H132.631L170.624,116.457z M113.634,152.457h252.798l39.215,24.772H74.419L113.634,152.457z
		 M333.411,436.229h-44.76V302.807h44.76V436.229z M339.411,290.807h-56.76c-3.313,0-6,2.687-6,6v139.422h-8.12V282.687h85v153.542
		h-8.12V296.807C345.411,293.494,342.725,290.807,339.411,290.807z M114.533,325.227H84.594c2.181-3.662,3.439-7.935,3.439-12.498
		c0-4.565-1.258-8.839-3.441-12.502h29.941V325.227z M114.533,337.227v25H84.594c2.181-3.662,3.439-7.935,3.439-12.498
		c0-4.565-1.258-8.839-3.441-12.502H114.533z M114.56,374.227c0.273,3.06,2.842,5.46,5.973,5.46h97c3.131,0,5.699-2.4,5.973-5.46
		h33.026v25H84.594c2.181-3.662,3.439-7.935,3.439-12.498c0-4.565-1.258-8.839-3.441-12.502H114.56z M126.533,367.687v-85h85v85
		H126.533z M223.533,300.227h32.999v25h-32.999V300.227z M223.533,337.227h32.999v25h-32.999V337.227z M256.531,411.227v25.002
		H84.593c2.182-3.662,3.44-7.936,3.44-12.5c0-4.565-1.258-8.839-3.441-12.502H256.531z M365.531,411.227h29.943
		c-2.183,3.663-3.441,7.937-3.441,12.502c0,4.564,1.258,8.838,3.44,12.5h-29.941V411.227z M365.531,399.227v-25h29.943
		c-2.183,3.663-3.441,7.937-3.441,12.502c0,4.563,1.258,8.836,3.439,12.498H365.531z M365.531,362.227v-25h29.943
		c-2.183,3.663-3.441,7.937-3.441,12.502c0,4.563,1.258,8.836,3.439,12.498H365.531z M365.531,325.227v-25h29.943
		c-2.183,3.663-3.441,7.937-3.441,12.502c0,4.563,1.258,8.836,3.439,12.498H365.531z M365.531,288.227v-11.54c0-3.313-2.687-6-6-6
		h-97c-3.313,0-6,2.687-6,6v11.54h-32.999v-11.54c0-3.313-2.687-6-6-6h-97c-3.313,0-6,2.687-6,6v11.54H84.594
		c2.181-3.662,3.439-7.935,3.439-12.498c0-4.564-1.258-8.838-3.44-12.5h310.88c-2.182,3.662-3.44,7.936-3.44,12.5
		c0,4.563,1.258,8.836,3.439,12.498H365.531z M84.593,251.229c2.182-3.662,3.44-7.936,3.44-12.5s-1.258-8.838-3.44-12.5h310.88
		c-2.182,3.662-3.44,7.936-3.44,12.5s1.258,8.838,3.44,12.5H84.593z M84.593,214.229c2.182-3.662,3.44-7.936,3.44-12.5
		s-1.258-8.838-3.44-12.5h310.88c-2.182,3.662-3.44,7.936-3.44,12.5s1.258,8.838,3.44,12.5H84.593z M51.033,201.729
		c0-6.893,5.607-12.5,12.5-12.5s12.5,5.607,12.5,12.5s-5.607,12.5-12.5,12.5S51.033,208.622,51.033,201.729z M51.033,238.729
		c0-6.893,5.607-12.5,12.5-12.5s12.5,5.607,12.5,12.5s-5.607,12.5-12.5,12.5S51.033,245.622,51.033,238.729z M51.033,275.729
		c0-6.893,5.607-12.5,12.5-12.5s12.5,5.607,12.5,12.5s-5.607,12.5-12.5,12.5S51.033,282.622,51.033,275.729z M51.033,312.729
		c0-6.893,5.607-12.5,12.5-12.5s12.5,5.607,12.5,12.5s-5.607,12.5-12.5,12.5S51.033,319.622,51.033,312.729z M51.033,349.729
		c0-6.893,5.607-12.5,12.5-12.5s12.5,5.607,12.5,12.5s-5.607,12.5-12.5,12.5S51.033,356.622,51.033,349.729z M51.033,386.729
		c0-6.893,5.607-12.5,12.5-12.5s12.5,5.607,12.5,12.5s-5.607,12.5-12.5,12.5S51.033,393.622,51.033,386.729z M51.033,423.729
		c0-6.893,5.607-12.5,12.5-12.5s12.5,5.607,12.5,12.5s-5.607,12.5-12.5,12.5S51.033,430.622,51.033,423.729z M429.033,423.729
		c0,6.893-5.607,12.5-12.5,12.5s-12.5-5.607-12.5-12.5s5.607-12.5,12.5-12.5S429.033,416.837,429.033,423.729z M429.033,386.729
		c0,6.893-5.607,12.5-12.5,12.5s-12.5-5.607-12.5-12.5s5.607-12.5,12.5-12.5S429.033,379.837,429.033,386.729z M429.033,349.729
		c0,6.893-5.607,12.5-12.5,12.5s-12.5-5.607-12.5-12.5s5.607-12.5,12.5-12.5S429.033,342.837,429.033,349.729z M429.033,312.729
		c0,6.893-5.607,12.5-12.5,12.5s-12.5-5.607-12.5-12.5s5.607-12.5,12.5-12.5S429.033,305.837,429.033,312.729z M429.033,275.729
		c0,6.893-5.607,12.5-12.5,12.5s-12.5-5.607-12.5-12.5s5.607-12.5,12.5-12.5S429.033,268.837,429.033,275.729z M429.033,238.729
		c0,6.893-5.607,12.5-12.5,12.5s-12.5-5.607-12.5-12.5s5.607-12.5,12.5-12.5S429.033,231.837,429.033,238.729z M404.033,201.729
		c0-6.893,5.607-12.5,12.5-12.5s12.5,5.607,12.5,12.5s-5.607,12.5-12.5,12.5S404.033,208.622,404.033,201.729z M459.7,197.18
		L243.238,60.443c-0.979-0.618-2.092-0.927-3.205-0.927s-2.226,0.309-3.205,0.927L20.366,197.18l-6.088-9.639L240.033,44.934
		l225.755,142.608L459.7,197.18z"/>
	<path d="M197.408,290.812h-56.75c-3.313,0-6,2.687-6,6v56.75c0,3.313,2.687,6,6,6h56.75c3.313,0,6-2.687,6-6v-56.75
		C203.408,293.499,200.722,290.812,197.408,290.812z M191.408,318.687h-16.375v-15.875h16.375V318.687z M163.033,302.812v15.875
		h-16.375v-15.875H163.033z M146.658,330.687h16.375v16.875h-16.375V330.687z M175.033,347.562v-16.875h16.375v16.875H175.033z"/>
</g>
<g>
</g>
<g>
</g>
<g>
</g>
<g>
</g>
<g>
</g>
<g>
</g>
<g>
</g>
<g>
</g>
<g>
</g>
<g>
</g>
<g>
</g>
<g>
</g>
<g>
</g>
<g>
</g>
<g>
</g>
</svg>
