<?xml version="1.0"?>
<svg xmlns="http://www.w3.org/2000/svg" viewBox="0 0 512 512" width="512" height="512"><g id="Outline"><path d="M488,104H104a56.069,56.069,0,0,0-50.586,32H40a24,24,0,0,0-24,24V296a8,8,0,0,0,8,8h0a8,8,0,0,0,8-8V160a8,8,0,0,1,8-8h8.581A56.14,56.14,0,0,0,48,160V294.111L32.844,324.423A8,8,0,0,0,32,328v72a8,8,0,0,0,8,8H72a8,8,0,0,0,8-8V347.68l20.227-17.338,36.618,73.236A8,8,0,0,0,144,408h31.783a8.274,8.274,0,0,0,4.954-1.547,8.013,8.013,0,0,0,2.852-8.983l-22.674-68.023L180,304h63.056L264,345.889V400a8,8,0,0,0,8,8h32a8,8,0,0,0,8-8V318.806l16,20V400a8,8,0,0,0,8,8h32a8,8,0,0,0,8-8V281.451l21.31-56.827,5.034,5.033A8,8,0,0,0,408,232h40a8,8,0,0,0,8-8V152c22.056,0,40-14.355,40-32v-8A8,8,0,0,0,488,104ZM224,120v21.766A24.065,24.065,0,0,1,204.707,165.3l-14.276,2.855A8,8,0,0,0,184,176v16a24,24,0,0,1-48,0V120ZM144.411,330.53,164.9,392H148.944l-36.195-72.391L130.959,304H160l-14.4,19.2A8,8,0,0,0,144.411,330.53ZM280,392V344a7.994,7.994,0,0,0-.845-3.578L260.944,304H296v88ZM384,214.549l-23.491,62.642A8,8,0,0,0,360,280V392H344V336a8,8,0,0,0-1.753-5L312,293.194V248H296v40H136V248H120v44.32L66.793,337.926A8,8,0,0,0,64,344v48H48V329.889l15.155-30.311A7.994,7.994,0,0,0,64,296V160a40.045,40.045,0,0,1,40-40h16v72a40,40,0,0,0,80,0v-9.441l7.845-1.569A40.109,40.109,0,0,0,240,141.766V120h80c0,17.645,17.944,32,40,32a50.235,50.235,0,0,0,8-.641V192a8,8,0,0,0,2.343,5.657L384,211.313ZM440,216H411.313L384,188.687V140.781a8,8,0,0,0-11.185-7.338A32.433,32.433,0,0,1,360,136c-13.009,0-24-7.327-24-16H440Zm16-80V120h24C480,128.673,469.009,136,456,136Z"/><path d="M256,176a32.036,32.036,0,0,0-32,32v16a32,32,0,0,0,64,0V208A32.036,32.036,0,0,0,256,176Zm16,48a16,16,0,0,1-32,0V208a16,16,0,0,1,32,0Z"/></g></svg>
