<?xml version="1.0" encoding="iso-8859-1"?>
<!-- Generator: Adobe Illustrator 19.0.0, SVG Export Plug-In . SVG Version: 6.00 Build 0)  -->
<svg version="1.1" id="Layer_1" xmlns="http://www.w3.org/2000/svg" xmlns:xlink="http://www.w3.org/1999/xlink" x="0px" y="0px"
	 viewBox="0 0 512 512" style="enable-background:new 0 0 512 512;" xml:space="preserve">
<g transform="translate(1 1)">
	<g>
		<path style="fill:#FFE100;" d="M365.933,307.907L353.987,203.8c-2.56-34.133-30.72-59.733-64.853-59.733
			c-5.12,0-11.093,2.56-13.653,7.68c-4.267,11.093-11.947,17.92-20.48,17.92s-16.213-6.827-20.48-17.92
			c-2.56-5.12-8.533-7.68-13.653-7.68c-34.133,0-62.293,25.6-64.853,59.733l-11.947,104.107
			C218.307,316.44,291.693,316.44,365.933,307.907"/>
		<path style="fill:#FFE100;" d="M480.28,343.747L383.853,357.4c-85.333,11.947-172.373,11.947-257.707,0L29.72,343.747
			C16.92,342.04,7.533,330.947,7.533,319c0-15.36,13.653-27.307,29.013-24.747l89.6,11.947c85.333,11.947,172.373,11.947,257.707,0
			l89.6-12.8c15.36-1.707,29.013,9.387,29.013,24.747C502.467,330.947,493.08,342.04,480.28,343.747"/>
	</g>
	<g>
		<path style="fill:#FFA800;" d="M365.933,307.907L353.987,203.8c-2.56-34.133-30.72-59.733-64.853-59.733
			c-2.56,0-5.973,0.853-8.533,2.56c25.6,6.827,45.227,29.013,47.787,58.027l11.947,103.253H365.933z"/>
		<path style="fill:#FFA800;" d="M480.28,343.747c12.8-1.707,22.187-12.8,22.187-24.747c0-15.36-13.653-27.307-29.013-24.747
			l-12.8,1.707c9.387,3.413,16.213,12.8,16.213,23.04c0,12.8-9.387,23.04-22.187,24.747L480.28,343.747L480.28,343.747z"/>
	</g>
	<g>
		<path style="fill:#FFFFFF;" d="M144.92,307.907L156.013,203.8c2.56-34.133,30.72-59.733,64.853-59.733
			c2.56,0,5.973,0.853,8.533,2.56c-25.6,6.827-45.227,29.013-47.787,58.027L170.52,308.76h-25.6V307.907z"/>
		<path style="fill:#FFFFFF;" d="M29.72,343.747C16.92,342.04,7.533,330.947,7.533,319c0-15.36,13.653-27.307,29.013-24.747
			l12.8,1.707c-9.387,3.413-16.213,11.947-16.213,23.04c0,12.8,9.387,23.04,22.187,24.747H29.72z"/>
	</g>
	<path d="M255,374.467c-43.52,0-87.04-3.413-129.707-8.533l-97.28-13.653C10.947,349.72-1,335.213-1,319
		c0-20.48,17.92-36.693,38.4-33.28l90.453,11.947c84.48,11.947,170.667,11.947,255.147,0l89.6-12.8
		c20.48-2.56,38.4,13.653,38.4,33.28c0,17.067-12.8,31.573-29.013,33.28l-97.28,14.507C342.04,371.053,298.52,374.467,255,374.467z
		 M33.133,301.933c-9.387,0-17.067,7.68-17.067,17.067c0,8.533,5.973,15.36,14.507,17.067l97.28,12.8
		c84.48,11.947,170.667,11.947,255.147,0l97.28-13.653c8.533-0.853,14.507-8.533,14.507-17.067c0-10.24-8.533-17.92-18.773-17.067
		l-91.307,13.653c-86.187,11.947-174.08,11.947-259.413,0l-90.453-12.8C33.987,301.933,33.987,301.933,33.133,301.933z"/>
	<path d="M255,323.267c-37.547,0-75.093-2.56-111.787-6.827c-4.267-0.853-7.68-5.12-7.68-9.387l11.093-104.107
		c4.267-38.4,35.84-67.413,74.24-67.413c9.387,0,17.92,5.12,21.333,12.8c3.413,7.68,8.533,12.8,12.8,12.8
		c4.267,0,9.387-5.12,12.8-12.8c3.413-7.68,11.947-12.8,21.333-12.8c38.4,0,69.973,29.013,73.387,67.413l11.947,104.107
		c0.853,4.267-2.56,8.533-7.68,9.387C330.093,320.707,292.547,323.267,255,323.267z M153.453,300.227
		c67.413,7.68,135.68,7.68,202.24,0l-10.24-95.573c-2.56-29.867-26.453-52.053-56.32-52.053c-2.56,0-5.12,1.707-5.973,2.56
		c-5.973,14.507-17.067,23.04-28.16,23.04c-11.093,0-22.187-8.533-28.16-23.04c-0.853-0.853-3.413-2.56-5.973-2.56
		c-29.867,0-53.76,22.187-56.32,52.053L153.453,300.227z"/>
	<path d="M186.733,246.467c-5.12,0-8.533-3.413-8.533-8.533c0-5.12,3.413-8.533,8.533-8.533c18.773,0,34.133-15.36,34.133-34.133
		c0-5.12,3.413-8.533,8.533-8.533c5.12,0,8.533,3.413,8.533,8.533C237.933,223.427,214.893,246.467,186.733,246.467z"/>
	<path d="M323.267,246.467c-28.16,0-51.2-23.04-51.2-51.2c0-5.12,3.413-8.533,8.533-8.533s8.533,3.413,8.533,8.533
		c0,18.773,15.36,34.133,34.133,34.133c5.12,0,8.533,3.413,8.533,8.533C331.8,243.053,328.387,246.467,323.267,246.467z"/>
</g>
<g>
</g>
<g>
</g>
<g>
</g>
<g>
</g>
<g>
</g>
<g>
</g>
<g>
</g>
<g>
</g>
<g>
</g>
<g>
</g>
<g>
</g>
<g>
</g>
<g>
</g>
<g>
</g>
<g>
</g>
</svg>
