<svg height="496pt" viewBox="0 0 496.001 496" width="496pt" xmlns="http://www.w3.org/2000/svg"><path d="m488 256c4.425781 0 8-3.582031 8-8v-48c0-4.414062-3.574219-8-8-8h-8v-40c0-4.414062-3.574219-8-8-8h-16v-60.183594l29.03125 11.617188c.960938.382812 1.96875.566406 2.96875.566406 2.296875 0 4.535156-.992188 6.097656-2.816406 2.222656-2.613282 2.527344-6.359375.765625-9.304688l-21.535156-35.878906 21.527344-35.878906c1.769531-2.945313 1.464843-6.6875-.765625-9.304688-2.234375-2.617187-5.898438-3.503906-9.066406-2.238281l-37.023438 14.804687-37.03125-14.8125c-3.160156-1.265624-6.832031-.378906-9.066406 2.238282-2.222656 2.617187-2.527344 6.359375-.765625 9.304687l21.535156 35.886719-21.527344 35.878906c-1.769531 2.945313-1.464843 6.691406.765625 9.304688 2.234375 2.617187 5.898438 3.503906 9.066406 2.242187l29.023438-11.609375v60.183594h-32c-4.425781 0-8 3.585938-8 8v40h-16v-40c0-4.414062-3.574219-8-8-8h-24v-60.183594l29.03125 11.617188c.960938.382812 1.96875.566406 2.96875.566406 2.296875 0 4.535156-.992188 6.097656-2.816406 2.222656-2.613282 2.527344-6.359375.765625-9.304688l-21.535156-35.878906 21.527344-35.878906c1.769531-2.945313 1.464843-6.6875-.765625-9.304688-2.234375-2.617187-5.890625-3.503906-9.066406-2.238281l-37.023438 14.804687-37.03125-14.8125c-3.167969-1.265624-6.832031-.378906-9.066406 2.238282-2.222656 2.617187-2.527344 6.359375-.765625 9.304687l21.535156 35.886719-21.527344 35.878906c-1.769531 2.945313-1.464843 6.691406.765625 9.304688 2.226563 2.617187 5.890625 3.503906 9.066406 2.242187l29.023438-11.609375v60.183594h-24c-4.425781 0-8 3.585938-8 8v40h-16v-40c0-4.414062-3.574219-8-8-8h-24.023438c-.144531-12.617188-5.097656-24.449219-13.992187-33.335938l-.601563-.617187c-6.054687-6.03125-9.382812-14.0625-9.382812-22.613281v-3.617188l29.03125 11.617188c.960938.382812 1.96875.566406 2.96875.566406 2.296875 0 4.535156-.992188 6.097656-2.816406 2.222656-2.613282 2.527344-6.359375.765625-9.304688l-21.535156-35.878906 21.527344-35.878906c1.769531-2.945313 1.464843-6.6875-.765625-9.304688-2.234375-2.617187-5.890625-3.503906-9.066406-2.238281l-37.023438 14.804687-37.03125-14.8125c-3.167969-1.265624-6.832031-.378906-9.066406 2.238282-2.222656 2.617187-2.527344 6.359375-.765625 9.304687l21.535156 35.886719-21.527344 35.878906c-1.769531 2.945313-1.464843 6.691406.765625 9.304688 2.226563 2.617187 5.890625 3.503906 9.066406 2.242187l29.023438-11.609375v3.617188c0 12.832031 4.992188 24.878906 14.023438 33.902344l.601562.617187c5.910156 5.902344 9.175781 13.71875 9.320312 22.054687h-23.945312c-4.425781 0-8 3.585938-8 8v40h-8c-4.425781 0-8 3.585938-8 8v16.328126c-12.871094-4.558594-26.265625-7.167969-40.007812-7.910157-.039063-12.769531-5.023438-24.769531-14.015626-33.753906l-.601562-.617187c-6.046875-6.039063-9.375-14.070313-9.375-22.621094v-3.617188l29.03125 11.617188c.960938.382812 1.96875.566406 2.96875.566406 2.296875 0 4.535156-.992188 6.097656-2.816406 2.222656-2.613282 2.527344-6.359375.765625-9.304688l-21.535156-35.878906 21.527344-35.878906c1.769531-2.945313 1.464843-6.6875-.765625-9.304688-2.234375-2.617187-5.898438-3.503906-9.066406-2.238281l-37.023438 14.804687-37.03125-14.8125c-3.160156-1.257812-6.832031-.378906-9.066406 2.238282-2.222656 2.617187-2.527344 6.359375-.765625 9.304687l21.535156 35.886719-21.527344 35.878906c-1.769531 2.945313-1.464843 6.691406.765625 9.304688 2.234375 2.617187 5.898438 3.503906 9.066406 2.242187l29.023438-11.609375v3.617188c0 12.832031 4.992188 24.878906 14.023438 33.902344l.601562.617187c6.007812 6 9.3125 13.976563 9.359375 22.464844-75.664063 4.183593-135.984375 66.886719-135.984375 143.582031 0 79.402344 64.601562 144 144 144 22.351562 0 44.199219-5.222656 64-15.0625v7.0625c0 4.417969 3.574219 8 8 8h64c4.425781 0 8-3.582031 8-8v-40h16v40c0 4.417969 3.574219 8 8 8h64c4.425781 0 8-3.582031 8-8v-40h16v40c0 4.417969 3.574219 8 8 8h64c4.425781 0 8-3.582031 8-8v-40h8c4.425781 0 8-3.582031 8-8v-48c0-4.414062-3.574219-8-8-8h-8v-128zm-49.144531-212.121094-11.785157-19.636718 17.953126 7.183593c1.90625.757813 4.03125.757813 5.9375 0l17.949218-7.183593-11.78125 19.636718c-1.519531 2.539063-1.519531 5.699219 0 8.234375l11.78125 19.640625-17.949218-7.183594c-.945313-.378906-1.953126-.570312-2.960938-.570312s-2.015625.191406-2.96875.570312l-17.953125 7.183594 11.785156-19.640625c1.519531-2.527343 1.519531-5.695312-.007812-8.234375zm-104 0-11.785157-19.636718 17.953126 7.183593c1.90625.757813 4.03125.757813 5.9375 0l17.949218-7.183593-11.78125 19.636718c-1.519531 2.539063-1.519531 5.699219 0 8.234375l11.78125 19.640625-17.949218-7.183594c-.945313-.378906-1.953126-.570312-2.960938-.570312s-2.015625.191406-2.96875.570312l-17.953125 7.183594 11.785156-19.640625c1.519531-2.527343 1.519531-5.695312-.007812-8.234375zm-120 0-11.785157-19.636718 17.953126 7.183593c1.90625.757813 4.03125.757813 5.9375 0l17.949218-7.183593-11.78125 19.636718c-1.519531 2.539063-1.519531 5.699219 0 8.234375l11.78125 19.640625-17.949218-7.183594c-.945313-.378906-1.953126-.570312-2.960938-.570312s-2.015625.191406-2.96875.570312l-17.953125 7.183594 11.785156-19.640625c1.519531-2.527343 1.519531-5.695312-.007812-8.234375zm-104 64-11.785157-19.636718 17.953126 7.183593c1.90625.757813 4.03125.757813 5.9375 0l17.949218-7.183593-11.78125 19.636718c-1.519531 2.539063-1.519531 5.699219 0 8.234375l11.78125 19.640625-17.949218-7.183594c-.945313-.378906-1.953126-.570312-2.960938-.570312s-2.015625.191406-2.96875.570312l-17.953125 7.183594 11.785156-19.640625c1.519531-2.527343 1.519531-5.695312-.007812-8.234375zm305.144531 52.121094h48v32h-48zm-96 0h48v32h-48zm-96 0h48v32h-48zm-16 48h272v32h-272zm176 176v-128h16v128zm-112-128v128h-48v-128zm16 0h16v128h-16zm32 0h48v128h-48zm-176 224c-70.574219 0-128-57.421875-128-128 0-70.574219 57.425781-128 128-128 16.664062 0 32.761719 3.296875 48 9.480469v14.519531c0 4.417969 3.574219 8 8 8h8v128h-8c-4.425781 0-8 3.585938-8 8v48c0 4.417969 3.574219 8 8 8h8v14.792969c-19.398438 11.222656-41.414062 17.207031-64 17.207031zm128 0h-48v-32h48zm96 0h-48v-32h48zm96 0h-48v-32h48zm16-48h-272v-32h272zm-16-48h-48v-128h48zm0 0"/><path d="m32 352h16c0-52.933594 43.0625-96 96-96v-16c-61.761719 0-112 50.242188-112 112zm0 0"/></svg>