<?xml version="1.0"?>
<svg xmlns="http://www.w3.org/2000/svg" xmlns:xlink="http://www.w3.org/1999/xlink" version="1.1" id="Capa_1" x="0px" y="0px" viewBox="0 0 512 512" style="enable-background:new 0 0 512 512;" xml:space="preserve" width="512px" height="512px" class=""><g><g>
	<g>
		<path d="M512,127.468c0-8.284-6.716-15-15-15s-15,6.716-15,15c0,36.025-29.309,65.333-65.334,65.333h-4.355L366.952,11.362    C365.283,4.685,359.283,0,352.4,0H159.601c-6.883,0-12.883,4.685-14.552,11.362l-45.36,181.439h-4.354    C59.309,192.801,30,163.493,30,127.468c0-8.284-6.716-15-15-15s-15,6.716-15,15c0,52.567,42.767,95.333,95.334,95.333h4.536    c-2.304,10.865-3.47,21.97-3.47,33.2c0,62.13,35.689,116.076,87.639,142.43c-11.559,4.26-22.749,9.549-33.417,15.838    c-30.868,18.196-56.666,44.207-74.607,75.22c-2.685,4.641-2.688,10.361-0.01,15.006C78.685,509.139,83.639,512,89,512h334.001    c5.361,0,10.315-2.861,12.994-7.506c2.679-4.644,2.675-10.365-0.01-15.005c-17.942-31.013-43.741-57.024-74.609-75.22    c-10.668-6.289-21.857-11.578-33.416-15.838c51.951-26.354,87.639-80.3,87.639-142.43c0-11.231-1.166-22.336-3.47-33.2h4.536    C469.233,222.801,512,180.035,512,127.468z M171.312,30h169.376l40.7,162.801H130.612L171.312,30z M241,482H117.44    c30.365-37.64,75.131-61.623,123.56-65.758V482z M394.561,482H271v-65.758C319.429,420.377,364.195,444.361,394.561,482z     M256,385.601c-71.461,0-129.6-58.138-129.6-129.6c0-11.286,1.442-22.413,4.295-33.2h250.608    c2.853,10.786,4.295,21.912,4.295,33.2C385.599,327.462,327.462,385.601,256,385.601z" data-original="#000000" class="active-path" data-old_color="#000000" fill="#FFFFFF"/>
	</g>
</g></g> </svg>
