<?xml version="1.0" encoding="iso-8859-1"?>
<!-- Generator: Adobe Illustrator 19.0.0, SVG Export Plug-In . SVG Version: 6.00 Build 0)  -->
<svg version="1.1" id="Capa_1" xmlns="http://www.w3.org/2000/svg" xmlns:xlink="http://www.w3.org/1999/xlink" x="0px" y="0px"
	 viewBox="0 0 496 496" style="enable-background:new 0 0 496 496;" xml:space="preserve">
<g>
	<path style="fill:#333333;" d="M256,384v88c0,4.416-3.584,8-8,8h-48c-4.416,0-8-3.584-8-8v-88h-16v88c0,4.416-3.584,8-8,8h-48
		c-4.416,0-8-3.584-8-8v-88H96v88c0,4.416-3.584,8-8,8H40c-4.416,0-8-3.584-8-8v-88H16v88c0,13.232,10.768,24,24,24h48
		c6.168,0,11.744-2.408,16-6.24c4.256,3.84,9.832,6.24,16,6.24h48c6.168,0,11.744-2.408,16-6.24c4.256,3.84,9.832,6.24,16,6.24h48
		c13.232,0,24-10.768,24-24v-88H256z"/>
	<path style="fill:#333333;" d="M424,216.808V144C424,64.6,359.4,0,280,0c-73.656,0-134.928,55.664-142.944,128H120
		c-6.168,0-11.744,2.408-16,6.24c-4.256-3.84-9.832-6.24-16-6.24H40c-13.232,0-24,10.768-24,24v104h16V152c0-4.416,3.584-8,8-8h48
		c4.416,0,8,3.584,8,8v104h16V152c0-4.416,3.584-8,8-8h48c4.416,0,8,3.584,8,8v104h16V152c0-4.416,3.584-8,8-8h48
		c4.416,0,8,3.584,8,8v104h16V152c0-13.232-10.768-24-24-24h-48c-6.168,0-11.744,2.408-16,6.24c-4.256-3.84-9.832-6.24-16-6.24
		h-14.872c7.912-63.44,62-112,126.872-112c70.576,0,128,57.424,128,128v72.808c-18.232,3.72-32,19.872-32,39.192
		c0,22.056,17.944,40,40,40s40-17.944,40-40C456,236.688,442.232,220.528,424,216.808z M416,280c-13.232,0-24-10.768-24-24
		c0-10.416,6.712-19.216,16-22.528V264h16v-30.528c9.288,3.312,16,12.112,16,22.528C440,269.232,429.232,280,416,280z"/>
	<rect x="472" y="248" style="fill:#333333;" width="24" height="16"/>
	
		<rect x="452.079" y="199.92" transform="matrix(-0.7071 0.7071 -0.7071 -0.7071 939.254 26.7875)" style="fill:#333333;" width="24" height="16"/>
	
		<rect x="359.911" y="195.904" transform="matrix(-0.7071 0.7071 -0.7071 -0.7071 775.0732 94.7622)" style="fill:#333333;" width="16" height="24"/>
	<rect x="336" y="248" style="fill:#333333;" width="24" height="16"/>
	
		<rect x="355.909" y="296.075" transform="matrix(-0.7071 0.7071 -0.7071 -0.7071 843.0729 258.9372)" style="fill:#333333;" width="24" height="16"/>
	<rect x="408" y="312" style="fill:#333333;" width="16" height="24"/>
	
		<rect x="456.077" y="292.07" transform="matrix(-0.7071 0.7071 -0.7071 -0.7071 1007.239 190.9273)" style="fill:#333333;" width="16" height="24"/>
</g>
<path style="fill:#FFA64D;" d="M288,392H0V248h288V392z"/>
<g>
	<rect x="255.992" y="280" style="fill:#333333;" width="32" height="16"/>
	<rect y="280" style="fill:#333333;" width="240" height="16"/>
	<rect y="344" style="fill:#333333;" width="288" height="16"/>
</g>
<g>
</g>
<g>
</g>
<g>
</g>
<g>
</g>
<g>
</g>
<g>
</g>
<g>
</g>
<g>
</g>
<g>
</g>
<g>
</g>
<g>
</g>
<g>
</g>
<g>
</g>
<g>
</g>
<g>
</g>
</svg>
